<svg width="25.000000" height="25.000000" viewBox="0 0 25 25" fill="none" xmlns="http://www.w3.org/2000/svg" xmlns:xlink="http://www.w3.org/1999/xlink">
	<desc>
			Created with Pixso.
	</desc>
	<defs>
		<clipPath id="clip2079_2977">
			<rect id="fluent:cursor-click-20-regular" rx="-0.500000" width="24.000000" height="24.000000" transform="translate(0.500000 0.500000)" fill="white" fill-opacity="0"/>
		</clipPath>
	</defs>
	<rect id="fluent:cursor-click-20-regular" rx="-0.500000" width="24.000000" height="24.000000" transform="translate(0.500000 0.500000)" fill="#FFFFFF" fill-opacity="0"/>
	<g clip-path="url(#clip2079_2977)">
		<path id="Vector" d="M9.37 2.5C9.54 2.5 9.7 2.56 9.81 2.68C9.93 2.8 10 2.95 10 3.12L10 5.62C10 5.79 9.93 5.94 9.81 6.06C9.7 6.18 9.54 6.25 9.37 6.25C9.2 6.25 9.04 6.18 8.93 6.06C8.81 5.94 8.75 5.79 8.75 5.62L8.75 3.12C8.75 2.95 8.81 2.8 8.93 2.68C9.04 2.56 9.2 2.5 9.37 2.5ZM4.51 4.51C4.57 4.45 4.63 4.4 4.71 4.37C4.79 4.34 4.87 4.32 4.95 4.32C5.03 4.32 5.11 4.34 5.19 4.37C5.27 4.4 5.33 4.45 5.39 4.51L7.16 6.28C7.22 6.33 7.27 6.4 7.3 6.48C7.33 6.56 7.35 6.64 7.35 6.72C7.35 6.8 7.34 6.89 7.3 6.96C7.27 7.04 7.23 7.11 7.17 7.17C7.11 7.23 7.04 7.27 6.96 7.3C6.89 7.34 6.8 7.35 6.72 7.35C6.64 7.35 6.56 7.33 6.48 7.3C6.4 7.27 6.33 7.22 6.28 7.16L4.51 5.39C4.39 5.28 4.33 5.12 4.33 4.95C4.33 4.78 4.39 4.63 4.51 4.51L4.51 4.51ZM14.23 4.51C14.29 4.57 14.34 4.63 14.37 4.71C14.4 4.79 14.42 4.87 14.42 4.95C14.42 5.03 14.4 5.11 14.37 5.19C14.34 5.27 14.29 5.33 14.23 5.39L12.46 7.16C12.41 7.22 12.34 7.27 12.26 7.3C12.18 7.33 12.1 7.35 12.02 7.35C11.94 7.35 11.85 7.34 11.78 7.3C11.7 7.27 11.63 7.23 11.57 7.17C11.51 7.11 11.47 7.04 11.43 6.96C11.4 6.89 11.39 6.8 11.39 6.72C11.39 6.64 11.41 6.56 11.44 6.48C11.47 6.4 11.52 6.33 11.58 6.28L13.35 4.51C13.46 4.39 13.62 4.33 13.79 4.33C13.95 4.33 14.11 4.39 14.23 4.51L14.23 4.51ZM2.5 9.37C2.5 9.2 2.56 9.05 2.68 8.93C2.79 8.81 2.95 8.75 3.12 8.75L5.62 8.75C5.79 8.75 5.95 8.81 6.06 8.93C6.18 9.05 6.25 9.2 6.25 9.37C6.25 9.54 6.18 9.69 6.06 9.81C5.95 9.93 5.79 10 5.62 10L3.12 10C2.95 10 2.79 9.93 2.68 9.81C2.56 9.69 2.5 9.54 2.5 9.37ZM10.79 9.12C10.61 8.97 10.39 8.87 10.16 8.84C9.92 8.81 9.68 8.85 9.47 8.95C9.25 9.05 9.07 9.21 8.94 9.41C8.81 9.61 8.75 9.84 8.75 10.08L8.75 21.46C8.75 22.61 10.18 23.15 10.94 22.28L13.47 19.38C13.64 19.18 13.86 19.02 14.11 18.91C14.35 18.8 14.61 18.74 14.88 18.75L18.89 18.75C20.06 18.75 20.59 17.28 19.69 16.54L10.79 9.12L10.79 9.12ZM10 21.46L10 10.08L18.89 17.5L14.88 17.5C14.43 17.5 13.99 17.59 13.59 17.77C13.18 17.96 12.82 18.23 12.53 18.56L10 21.46Z" fill="#FFFFFF" fill-opacity="1.000000" fill-rule="nonzero"/>
	</g>
</svg>
