<svg width="13.422852" height="7.750000" viewBox="0 0 13.4229 7.75" fill="none" xmlns="http://www.w3.org/2000/svg" xmlns:xlink="http://www.w3.org/1999/xlink">
	<desc>
			Created with Pixso.
	</desc>
	<defs/>
	<path id="Vector" d="M13.15 6.21L7.2 0.19C7.13 0.12 7.05 0.07 6.97 0.04C6.89 0.01 6.8 0 6.71 0C6.61 0 6.52 0.01 6.44 0.04C6.36 0.07 6.28 0.12 6.21 0.19L0.24 6.21C0.08 6.38 0 6.58 0 6.83C0 7.08 0.08 7.3 0.26 7.48C0.44 7.66 0.64 7.75 0.88 7.75C1.12 7.75 1.32 7.66 1.5 7.48L6.71 2.23L11.91 7.48C12.08 7.64 12.28 7.73 12.52 7.73C12.77 7.73 12.98 7.64 13.15 7.46C13.33 7.28 13.42 7.07 13.42 6.83C13.42 6.6 13.33 6.39 13.15 6.21Z" fill="#F57520" fill-opacity="1.000000" fill-rule="nonzero"/>
</svg>
