<svg width="210.750000" height="188.000000" viewBox="0 0 210.75 188" fill="none" xmlns="http://www.w3.org/2000/svg" xmlns:xlink="http://www.w3.org/1999/xlink">
	<desc>
			Created with Pixso.
	</desc>
	<defs/>
	<path id="Vector" d="M95.66 21.23L90.85 16.22C80.87 5.83 67.33 0 53.22 0C23.82 0 0 24.79 0 55.38C0 70.08 5.6 84.16 15.58 94.55L95.66 177.89L105.37 188L115.08 177.89L195.16 94.55C205.14 84.16 210.75 70.08 210.75 55.38C210.75 24.79 186.92 0 157.52 0C143.41 0 129.87 5.83 119.89 16.22L115.08 21.23L105.37 31.33L95.66 21.23ZM105.37 167.79L185.06 84.85Q190.36 79.34 193.26 72.77Q196.75 64.84 196.75 55.38Q196.75 45.93 193.26 38Q190.36 31.43 185.06 25.92Q178.82 19.42 171.19 16.46Q164.84 14 157.52 14Q150.21 14 143.85 16.46Q136.23 19.42 129.98 25.92L115.47 41.03Q111.45 45.21 105.65 45.33Q99.85 45.44 95.67 41.42Q95.57 41.33 95.47 41.23Q95.37 41.13 95.27 41.03L80.76 25.92Q74.51 19.42 66.89 16.46Q60.53 14 53.22 14Q45.9 14 39.55 16.46Q31.92 19.42 25.68 25.92Q20.38 31.43 17.49 38Q14 45.92 14 55.38Q14 64.84 17.48 72.76Q20.38 79.34 25.68 84.85L105.37 167.79Z" fill="#F57520" fill-opacity="1.000000" fill-rule="evenodd"/>
</svg>
